<svg xmlns="http://www.w3.org/2000/svg" version="1.1" x="0" y="0" width="150" height="150" viewBox="0 0 150 150" enable-background="new 0 0 150 150" xml:space="preserve"><path fill-rule="evenodd" clip-rule="evenodd" d="M63.2 87.9c0.2 4.1-1.3 7.2-5.6 8.2 -3.7 0.8-6.7-0.6-8.2-4.1 -1.6-3.9 0-7 3.3-9.5 5.1-3.7 4.8-8-0.7-11.2 -2.9-1.7-6.1-2.7-9.4-3.2 -2.9-0.4-3.1-1.9-2.5-4.1 0.6-2.1 1.1-4.2 1.9-6.2 2.7-6.7 5.2-7.1 9.8-1.9 3.2 3.6 7.6 4.7 11.6 2.7 3.8-1.9 5.7-6.1 4.7-10.5 -1.1-4.7-4.5-6.8-9.1-7.1 -6.9-0.4-8.1-2.6-4.5-8.8 0.3-0.6 0.7-1.1 1.1-1.7 4.2-6.2 4.2-6.2 10.4-1.8 1.5 1 3.1 2 4.7 2.7 6.6 2.7 9.7 0.5 9.7-6.5 0-4.1 1.5-7.2 5.8-8.1 3.5-0.7 6.2 0.6 7.8 3.8 2.1 4.1 0.2 7-2.9 9.5 -5.7 4.6-5.3 8.5 1.4 11.9 2.6 1.3 5.6 2.3 8.5 2.8 2.8 0.5 3.2 1.6 2.4 4.1 -1 3.2-1.5 6.5-3.5 9.3 -2.6 3.7-4.4 3.7-7.2 0.1 -2.7-3.6-5.9-5.9-10.6-4.6 -4.7 1.3-7.6 5.4-7 10 0.5 4.4 4 7.7 8.7 8.1 8 0.7 9.1 3.1 4.7 9.9 -0.2 0.3-0.4 0.5-0.6 0.8 -4.1 6-4.1 5.9-10.1 1.8 -1.6-1.1-3.3-2.3-5.2-3C66.3 78.9 63.2 81.1 63.2 87.9zM81.8 90.4c-2.5 3.2-5.2 6.2-6.8 9.9 -2.9 6.9-0.9 9.9 6.5 9.9 4.3 0 7.9 2.7 8.2 6.5 0.3 4-1.7 6.7-5.5 7.8 -3.5 1-6-0.7-8.1-3.5 -4.3-5.6-8.3-5.4-11.6 0.9 -1.5 2.9-2.2 6.2-3.2 9.4 -0.4 1.1 0 3-2.2 2.4 -3.8-1.1-7.9-1.6-11.1-4.1 -2.9-2.2-3.9-4.6 0-6.9 2.5-1.5 4.3-3.7 4.9-6.6 1.2-5.3-2.2-10-8.1-11.1 -1.5-0.3-2.7-0.1-2.9-2.3 -0.8-9.9-1.8-19.8-3-29.7 -0.3-3 0.5-3.9 3.4-3 3 0.9 6.1 1.6 8.8 3.3 4 2.5 4.2 4.7 0.4 7.5 -2.8 2.1-4.8 4.5-4.7 8.2 0.1 5.3 3.7 9.2 8.9 9.4 5.2 0.1 9.1-3.5 9.4-8.9 0.4-7.6 2.8-8.9 9.3-4.9C77.2 86.3 79.8 88 81.8 90.4zM105 97.7c-1.4 14.8-2.8 28.9-4.1 43 -0.4 4-3.5 4.6-6.4 5.1 -11.4 2.2-22.8 2-34.8 1.1 2.2-7.6 3-15.4 6-22.5 2.6-6.2 5.1-6.6 9.2-1.6 3.3 4 7.9 5.2 12 2.9 3.9-2.2 5.6-5.6 4.8-10.1 -0.9-4.7-4.6-7.5-9.8-7.5 -6.3-0.1-7.5-2.1-4.6-7.9 0.3-0.6 0.6-1.2 1-1.7 4.4-7.2 4.5-7.3 11.4-2.4C94.3 99.5 99 100.9 105 97.7zM84.3 6.8c7.1 0 15 0.7 22.9 2.3 4.3 0.8 6.7 2.7 5.9 7.8 -1.2 8.2-1.8 16.5-2.5 24.8 -0.2 2.5-0.9 3.4-3.6 2.5 -4.4-1.3-9.1-1.8-13.3-3.9 -5.1-2.6-5.3-4.9-0.9-8.5 4.3-3.5 5.5-8 3.2-12.3 -2.1-3.9-6.7-5.9-11-4.4 -4.8 1.6-6.5 5.2-6.4 10 0.1 5.1-2 6.5-6.7 4.6 -1.1-0.4-2.1-1-3.1-1.7 -7-4.5-6.8-4.3-2.4-11.3 1.3-2 1-1.5 1.8-3.5 2.9-7.4 6.5-7 11.8-6.6C81.1 6.6 82.3 6.7 84.3 6.8zM109.7 49.9c-1.3 13.9-2.7 27.8-4.1 41.7 -0.4 4.4-4.3 6.9-8.8 5.8 -1.6-0.4-3.1-1.1-4.5-2 -7.5-4.4-7.4-4.4-2.6-11.6 1.1-1.6 2-3.5 2.7-5.3 2-5.8 0.1-8.5-6-8.6 -6.2-0.1-10.1-3.7-9.1-8.4 0.7-2.9 2.4-5 5.5-5.8 3.1-0.8 5.5 0.5 7.5 2.7 5.7 6.6 10.2 5.8 13.4-2.6 0.8-2.2 1.2-4.5 2-6.7 0.4-1.2-0.1-3.3 2.5-2.6C110.3 47 110 48.4 109.7 49.9zM38.1 62.9c-1.1-10.6-2.1-19.9-3.1-29.3 -0.2-1.7 0.4-2.7 2-3.5 3.9-1.9 5.2-5.2 5.1-9.4 -0.1-5.4 1.6-6.5 6.6-4.6 2.8 1.1 5 3.2 7.5 4.8 2.2 1.5 2.3 2.7 0.6 4.7 -2.7 3.1-5.4 6.4-5.9 10.7 -0.6 4.9 1 6.9 5.9 6.8 2.4-0.1 4.6-0.1 6.7 1.4 3.5 2.5 4.1 7.2 1.4 10.5 -2.5 3-7.3 3.4-10.2 0.7 -1.1-1-1.8-2.4-2.8-3.5 -2.6-3.1-5.7-3.2-8.5-0.2 -1.2 1.3-2.1 3-2.9 4.6C39.6 58.2 39.1 60 38.1 62.9zM34.7 28.9c-0.6-5.3-1.1-10-1.6-14.8 -0.2-2.3 1.2-3.3 3-3.9 9.7-3.3 19.9-3 30-3.6 2-0.1 1.9 1.4 1.6 2.8 -1.1 4.3-4 7.6-6.7 10.9 -1.3 1.7-2.3-0.1-3.3-0.8 -2.9-2.2-5.7-4.5-9.3-5.6 -5.9-1.8-8.6 0.1-8.4 6.2C40.1 23.9 39.2 26.9 34.7 28.9zM44.6 130c4.3 3.1 8.2 4.5 12.3 5.2 2.5 0.5 3.5 1.3 2.6 4.3 -2.3 8-2.7 8.3-10.3 5.5 -2.1-0.8-3.3-1.9-3.4-4.3C45.6 137.5 45.1 134.2 44.6 130zM44 123.1c-0.5-4.9-0.7-9.1-1.3-13.3 -0.4-2.8 0.7-3.2 3-2.5 5.3 1.5 7.1 7.8 3.3 11.8C47.7 120.5 46 121.5 44 123.1z"/></svg>
